# xmcd
#
# Track frame offsets:
#	150
#	13487
#	25487
#	37475
#	50237
#	59812
#	71975
#	84287
#	96075
#	106825
#
# Disc length: 1570
#
# Revision: 2
# Processed by: cddbd v1.5.1PL0 Copyright (c) Steve Scherf et al.
# Submitted via: audiograbber 1.80
# Normalized: r1:DSETVAR1
#
DISCID=9906200a
DTITLE=Various Artist - Queens of Country - Vol 1
DYEAR=1900
DGENRE=
TTITLE0=Lyn Anderson - Rose Garden
TTITLE1=Donna Fargo - United States Of Hamerica
TTITLE2=Dolly Parton - Letter To Heaven
TTITLE3=Billie Jo Spears - Youve got the power
TTITLE4=Lyn Anderson - Snow bird
TTITLE5=Donna Fargo - Funny face
TTITLE6=Dolly Parton - Two little orphans
TTITLE7=Billie Jo Spears - Try a little kindness
TTITLE8=Lyn Anderson - Heavens just a sin away
TTITLE9=Donna Fargo - Happiest girl in whole world
EXTD=
EXTT0=
EXTT1=
EXTT2=
EXTT3=
EXTT4=
EXTT5=
EXTT6=
EXTT7=
EXTT8=
EXTT9=
PLAYORDER=
